<?xml version="1.0" encoding="UTF-8"?> <svg xmlns="http://www.w3.org/2000/svg" width="157" height="60" viewBox="0 0 157 60" fill="none"><path d="M74.8634 57.3428C74.299 57.3428 73.7813 57.241 73.3061 57.0373C72.8308 56.8336 72.4192 56.545 72.067 56.1801C71.7148 55.8109 71.439 55.3781 71.248 54.8731C71.057 54.3766 70.9637 53.8292 70.9637 53.2394C70.9637 52.6495 71.057 52.0894 71.248 51.5929C71.439 51.0964 71.7105 50.6594 72.0585 50.2859C72.4065 49.9168 72.8223 49.624 73.2976 49.4203C73.7729 49.2166 74.299 49.1147 74.8592 49.1147C75.4193 49.1147 75.9031 49.2123 76.3444 49.3991C76.7815 49.59 77.1549 49.8404 77.4519 50.1459C77.7575 50.4514 77.9696 50.7782 78.1012 51.1346L77.1422 51.5717C76.9597 51.1304 76.6669 50.7697 76.2765 50.4981C75.8819 50.2265 75.4108 50.0907 74.8677 50.0907C74.3245 50.0907 73.8195 50.2223 73.3825 50.4854C72.9539 50.7485 72.6144 51.1177 72.3725 51.5887C72.1349 52.0597 72.0118 52.6114 72.0118 53.2351C72.0118 53.8589 72.1349 54.3979 72.3725 54.8689C72.6186 55.3399 72.9496 55.7048 73.3825 55.9722C73.811 56.2395 74.3075 56.3668 74.8677 56.3668C75.4278 56.3668 75.8903 56.231 76.2765 55.9594C76.6711 55.6879 76.9597 55.3272 77.1422 54.8816L78.1012 55.3187C77.9696 55.6667 77.7532 55.9976 77.4519 56.3074C77.1464 56.6129 76.7772 56.8675 76.3444 57.0543C75.9073 57.2452 75.4108 57.3386 74.8592 57.3386L74.8677 57.3471L74.8634 57.3428Z" fill="#0C2B2B"></path><path d="M82.0428 57.3428C81.4827 57.3428 80.9819 57.2155 80.5321 56.9566C80.0823 56.6978 79.7301 56.3371 79.4628 55.8788C79.1997 55.4247 79.0681 54.907 79.0681 54.3257C79.0681 53.7443 79.1997 53.2351 79.4543 52.7853C79.7132 52.3355 80.0696 51.9833 80.5152 51.7159C80.965 51.4486 81.4699 51.3213 82.0343 51.3213C82.5987 51.3213 83.0952 51.4528 83.545 51.7117C83.9948 51.9705 84.347 52.3227 84.6059 52.7726C84.8647 53.2224 84.992 53.7401 84.992 54.3257C84.992 54.9113 84.8562 55.429 84.5846 55.883C84.3131 56.3413 83.9566 56.6935 83.5111 56.9524C83.0697 57.2112 82.569 57.3385 82.0258 57.3385H82.0386L82.0428 57.3428ZM82.0428 56.3837C82.395 56.3837 82.7218 56.2946 83.0103 56.1164C83.2946 55.9382 83.528 55.6963 83.6978 55.3823C83.8675 55.0683 83.9481 54.7203 83.9481 54.3341C83.9481 53.948 83.8675 53.5915 83.6978 53.2945C83.528 52.9975 83.3031 52.7513 83.0103 52.5646C82.7175 52.3822 82.3993 52.293 82.0428 52.293C81.6864 52.293 81.3554 52.3822 81.0626 52.5646C80.7698 52.7471 80.5449 52.9847 80.3751 53.2945C80.2054 53.6 80.1163 53.948 80.1163 54.3341C80.1163 54.7203 80.2054 55.0683 80.3751 55.3823C80.5449 55.6963 80.7783 55.9424 81.0626 56.1164C81.3469 56.2946 81.6736 56.3837 82.0428 56.3837Z" fill="#0C2B2B"></path><path d="M86.303 57.2116V51.4447H87.2747V52.5692L87.1135 52.4758C87.2578 52.1152 87.4869 51.8308 87.8009 51.6229C88.1192 51.4192 88.4884 51.3174 88.9169 51.3174C89.3455 51.3174 89.702 51.4107 90.0287 51.5975C90.3555 51.7842 90.6058 52.0388 90.7968 52.3655C90.9878 52.6923 91.0811 53.0657 91.0811 53.4773V57.2073H90.0712V53.7956C90.0712 53.4773 90.016 53.2015 89.9014 52.9851C89.7869 52.7686 89.6214 52.5904 89.4177 52.4674C89.214 52.3443 88.9679 52.2849 88.6963 52.2849C88.4247 52.2849 88.1871 52.3443 87.9749 52.4674C87.7627 52.5904 87.6015 52.7686 87.4784 52.9936C87.3554 53.2185 87.2959 53.49 87.2959 53.8041V57.2158H86.303V57.2116Z" fill="#0C2B2B"></path><path d="M92.5079 57.2116V51.4447H93.4796V52.5692L93.3141 52.4758C93.4584 52.1152 93.6876 51.8308 94.0016 51.6229C94.3198 51.4192 94.689 51.3174 95.1176 51.3174C95.5462 51.3174 95.9026 51.4107 96.2294 51.5975C96.5561 51.7799 96.8065 52.0388 96.9975 52.3655C97.1884 52.6923 97.2818 53.0657 97.2818 53.4773V57.2073H96.2718V53.7956C96.2718 53.4773 96.2167 53.2015 96.1021 52.9851C95.9875 52.7686 95.822 52.5904 95.6183 52.4674C95.4146 52.3443 95.1685 52.2849 94.8969 52.2849C94.6254 52.2849 94.3877 52.3443 94.1755 52.4674C93.9634 52.5904 93.8021 52.7686 93.6791 52.9936C93.556 53.2185 93.4966 53.49 93.4966 53.8041V57.2158H92.5036L92.5079 57.2116Z" fill="#0C2B2B"></path><path d="M101.364 57.343C100.804 57.343 100.316 57.2157 99.8785 56.9483C99.4414 56.6852 99.1019 56.3203 98.8515 55.8662C98.6012 55.4037 98.4781 54.8945 98.4781 54.3216C98.4781 53.7488 98.6012 53.2311 98.8473 52.7813C99.0934 52.3314 99.4244 51.9792 99.8572 51.7204C100.277 51.4615 100.757 51.3342 101.287 51.3342C101.716 51.3342 102.098 51.4106 102.425 51.5634C102.76 51.7204 103.036 51.9241 103.269 52.1829C103.498 52.4418 103.676 52.7431 103.808 53.0698C103.931 53.405 103.99 53.7445 103.99 54.1052C103.99 54.1858 103.99 54.2707 103.978 54.3725C103.965 54.4659 103.956 54.555 103.944 54.6441H99.2165V53.7869H103.371L102.9 54.1773C102.959 53.8082 102.925 53.4772 102.789 53.1844C102.654 52.8916 102.454 52.6582 102.191 52.4885C101.928 52.3187 101.627 52.2296 101.292 52.2296C100.956 52.2296 100.651 52.3187 100.371 52.4885C100.091 52.6582 99.8742 52.9043 99.7257 53.2226C99.5687 53.5408 99.5093 53.9185 99.5432 54.3513C99.5135 54.7714 99.5857 55.1406 99.7384 55.4631C99.8997 55.7814 100.125 56.0275 100.426 56.1972C100.719 56.3755 101.045 56.4561 101.393 56.4561C101.78 56.4561 102.102 56.367 102.365 56.1887C102.628 56.0105 102.84 55.7814 103.006 55.5013L103.842 55.9299C103.727 56.1972 103.549 56.4349 103.311 56.6513C103.074 56.8677 102.794 57.0374 102.467 57.169C102.14 57.2963 101.78 57.3599 101.385 57.3599L101.364 57.3472V57.343Z" fill="#0C2B2B"></path><path d="M107.954 57.3428C107.39 57.3428 106.893 57.2155 106.448 56.9481C106.011 56.6808 105.663 56.3201 105.412 55.866C105.162 55.412 105.039 54.8985 105.039 54.3257C105.039 53.7528 105.162 53.2351 105.412 52.7853C105.663 52.3355 106.007 51.9833 106.448 51.7159C106.885 51.4486 107.386 51.3213 107.954 51.3213C108.336 51.3213 108.684 51.3892 109.015 51.525C109.342 51.6608 109.635 51.8432 109.881 52.0681C110.131 52.3015 110.309 52.5646 110.424 52.8702L109.537 53.2987C109.401 52.9975 109.198 52.7556 108.918 52.5646C108.637 52.3737 108.319 52.2803 107.959 52.2803C107.598 52.2803 107.292 52.3694 107.012 52.5434C106.732 52.7216 106.507 52.9635 106.346 53.2733C106.185 53.5831 106.1 53.9353 106.1 54.3341C106.1 54.733 106.18 55.0683 106.346 55.378C106.507 55.6921 106.732 55.9297 107.012 56.1122C107.292 56.2946 107.611 56.3795 107.959 56.3795C108.306 56.3795 108.646 56.2861 108.918 56.0952C109.198 55.9042 109.401 55.6539 109.537 55.3398L110.424 55.7897C110.309 56.0909 110.123 56.354 109.881 56.5874C109.63 56.8208 109.342 57.0033 109.015 57.1391C108.688 57.2749 108.336 57.3428 107.954 57.3428Z" fill="#0C2B2B"></path><path d="M114.069 57.2749C113.504 57.2749 113.076 57.1094 112.766 56.7911C112.46 56.4729 112.308 56.0146 112.308 55.429V52.3907H111.259V51.4359H111.472C111.73 51.4359 111.934 51.3552 112.083 51.1982C112.231 51.0412 112.308 50.8375 112.308 50.5787V50.1077H113.3V51.4359H114.595V52.3907H113.3V55.395C113.3 55.586 113.33 55.7557 113.39 55.9C113.449 56.0443 113.555 56.1588 113.695 56.2395C113.839 56.3201 114.03 56.3625 114.259 56.3625C114.306 56.3625 114.374 56.3625 114.442 56.3498C114.51 56.3371 114.586 56.3371 114.654 56.3286V57.207C114.557 57.2282 114.455 57.2494 114.34 57.2537C114.226 57.2621 114.128 57.2664 114.056 57.2664L114.064 57.2749H114.069Z" fill="#0C2B2B"></path><path d="M115.961 50.5282V49.2424H116.954V50.5282H115.961ZM115.961 57.2159V51.449H116.954V57.2159H115.961Z" fill="#0C2B2B"></path><path d="M118.503 57.2116V51.4447H119.475V52.5692L119.309 52.4758C119.454 52.1152 119.683 51.8308 119.997 51.6229C120.315 51.4192 120.684 51.3174 121.113 51.3174C121.542 51.3174 121.898 51.4107 122.221 51.5975C122.547 51.7799 122.798 52.0388 122.989 52.3655C123.18 52.6923 123.273 53.0657 123.273 53.4773V57.2073H122.267V53.7956C122.267 53.4773 122.212 53.2015 122.097 52.9851C121.983 52.7686 121.817 52.5904 121.614 52.4674C121.41 52.3443 121.164 52.2849 120.892 52.2849C120.621 52.2849 120.383 52.3443 120.171 52.4674C119.959 52.5904 119.797 52.7686 119.674 52.9936C119.551 53.2185 119.492 53.49 119.492 53.8041V57.2158H118.499L118.503 57.2116Z" fill="#0C2B2B"></path><path d="M127.456 59.5621C127.049 59.5621 126.671 59.4984 126.328 59.3711C125.98 59.2396 125.687 59.0656 125.441 58.8407C125.195 58.6158 125.004 58.3569 124.881 58.0557L125.814 57.6271C125.916 57.8987 126.107 58.132 126.387 58.3145C126.667 58.497 127.028 58.5988 127.448 58.5988C127.775 58.5988 128.076 58.5394 128.339 58.4164C128.602 58.2933 128.814 58.1023 128.971 57.8562C129.128 57.6101 129.209 57.3131 129.209 56.9651V55.6708L129.391 55.8618C129.192 56.2564 128.908 56.5577 128.534 56.7614C128.161 56.9651 127.753 57.0754 127.304 57.0754C126.76 57.0754 126.277 56.9439 125.848 56.6935C125.419 56.4431 125.084 56.0952 124.838 55.6581C124.592 55.221 124.477 54.733 124.477 54.2026C124.477 53.6722 124.6 53.1757 124.838 52.7386C125.084 52.3015 125.415 51.9621 125.84 51.7032C126.26 51.4528 126.743 51.3213 127.291 51.3213C127.741 51.3213 128.148 51.4231 128.517 51.6268C128.886 51.8305 129.179 52.1106 129.404 52.4628L129.256 52.7301V51.4443H130.227V56.9651C130.227 57.4616 130.113 57.9114 129.875 58.3018C129.637 58.6964 129.315 59.002 128.895 59.2269C128.479 59.4518 128.004 59.5663 127.465 59.5663L127.456 59.5578V59.5621ZM127.38 56.1079C127.719 56.1079 128.033 56.0188 128.305 55.8491C128.577 55.6793 128.801 55.4459 128.967 55.1616C129.132 54.8773 129.213 54.5506 129.213 54.1941C129.213 53.8377 129.132 53.5279 128.967 53.2351C128.801 52.9423 128.585 52.7131 128.305 52.5392C128.025 52.3694 127.719 52.2803 127.38 52.2803C127.04 52.2803 126.714 52.3694 126.425 52.5392C126.141 52.7089 125.916 52.9423 125.759 53.2266C125.602 53.5109 125.521 53.8377 125.521 54.1941C125.521 54.5506 125.602 54.8731 125.759 55.1616C125.916 55.4459 126.141 55.6793 126.421 55.8491C126.701 56.0188 127.019 56.1079 127.38 56.1079Z" fill="#0C2B2B"></path><path d="M137.391 57.3428C136.827 57.3428 136.309 57.241 135.834 57.0373C135.358 56.8336 134.947 56.545 134.595 56.1801C134.242 55.8109 133.967 55.3781 133.78 54.8731C133.589 54.3766 133.495 53.8292 133.495 53.2394C133.495 52.6495 133.589 52.0894 133.78 51.5929C133.971 51.0964 134.242 50.6594 134.59 50.2859C134.938 49.9168 135.354 49.624 135.829 49.4203C136.305 49.2166 136.831 49.1147 137.391 49.1147C137.951 49.1147 138.431 49.2123 138.876 49.3991C139.313 49.59 139.687 49.8404 139.984 50.1459C140.289 50.4514 140.501 50.7782 140.633 51.1346L139.674 51.5717C139.491 51.1304 139.199 50.7697 138.808 50.4981C138.414 50.2265 137.943 50.0907 137.399 50.0907C136.856 50.0907 136.351 50.2223 135.914 50.4854C135.486 50.7485 135.146 51.1177 134.904 51.5887C134.667 52.0597 134.544 52.6114 134.544 53.2351C134.544 53.8589 134.667 54.3979 134.904 54.8689C135.15 55.3399 135.481 55.7048 135.914 55.9722C136.343 56.2395 136.839 56.3668 137.399 56.3668C137.96 56.3668 138.422 56.231 138.808 55.9594C139.203 55.6879 139.491 55.3272 139.674 54.8816L140.633 55.3187C140.501 55.6667 140.285 55.9976 139.984 56.3074C139.678 56.6129 139.309 56.8675 138.876 57.0543C138.439 57.2452 137.943 57.3386 137.391 57.3386L137.399 57.3471L137.391 57.3428Z" fill="#0C2B2B"></path><path d="M143.518 57.343C143.136 57.343 142.81 57.2751 142.517 57.1309C142.233 56.9951 141.999 56.7956 141.834 56.5538C141.672 56.3076 141.588 56.0233 141.588 55.7008C141.588 55.3783 141.655 55.1152 141.787 54.8691C141.919 54.623 142.126 54.4108 142.407 54.2411C142.687 54.0713 143.047 53.9483 143.467 53.8804L145.606 53.5282V54.3641L143.692 54.6824C143.323 54.7418 143.052 54.8649 142.882 55.0346C142.712 55.2043 142.631 55.4165 142.631 55.6669C142.631 55.9045 142.729 56.0955 142.916 56.2525C143.107 56.4095 143.344 56.4901 143.624 56.4901C143.985 56.4901 144.308 56.4137 144.571 56.2567C144.834 56.0997 145.046 55.896 145.203 55.6287C145.36 55.3613 145.432 55.0685 145.432 54.7503V53.2863C145.432 52.9723 145.318 52.7219 145.084 52.5225C144.851 52.3273 144.545 52.2297 144.172 52.2297C143.845 52.2297 143.552 52.3103 143.302 52.48C143.052 52.6498 142.861 52.8662 142.742 53.1463L141.876 52.6964C141.986 52.4291 142.156 52.1915 142.385 51.9878C142.619 51.7841 142.895 51.6144 143.209 51.4913C143.523 51.3682 143.849 51.3088 144.197 51.3088C144.639 51.3088 145.029 51.3895 145.36 51.5592C145.695 51.7289 145.958 51.9623 146.145 52.2551C146.336 52.5564 146.429 52.8959 146.429 53.2905V57.2073H145.458V56.1167L145.64 56.1761C145.517 56.4095 145.356 56.6047 145.148 56.7744C144.944 56.9442 144.698 57.0799 144.418 57.1818C144.138 57.2836 143.841 57.3303 143.506 57.3303V57.3218L143.518 57.343Z" fill="#0C2B2B"></path><path d="M147.987 57.2113V51.4444H148.958V52.5053L148.848 52.3568C148.984 52.03 149.187 51.7839 149.468 51.6226C149.748 51.4571 150.087 51.385 150.482 51.385H150.834V52.3228H150.329C149.922 52.3228 149.595 52.4544 149.34 52.7047C149.09 52.9551 148.967 53.3158 148.967 53.7826V57.2155H147.974H147.982L147.987 57.2113Z" fill="#0C2B2B"></path><path d="M154.378 57.343C153.817 57.343 153.329 57.2157 152.892 56.9483C152.455 56.6852 152.116 56.3203 151.865 55.8662C151.615 55.4037 151.492 54.8945 151.492 54.3216C151.492 53.7488 151.615 53.2311 151.861 52.7813C152.107 52.3314 152.438 51.9792 152.867 51.7204C153.287 51.4615 153.766 51.3342 154.297 51.3342C154.726 51.3342 155.107 51.4106 155.434 51.5634C155.769 51.7204 156.045 51.9241 156.279 52.1829C156.512 52.4418 156.686 52.7431 156.818 53.0698C156.941 53.405 157 53.7445 157 54.1052C157 54.1858 157 54.2707 156.987 54.3725C156.975 54.4659 156.966 54.555 156.953 54.6441H152.226V53.7869H156.38L155.909 54.1773C155.969 53.8082 155.935 53.4772 155.799 53.1844C155.663 52.8916 155.464 52.6582 155.201 52.4885C154.938 52.3187 154.636 52.2296 154.301 52.2296C153.966 52.2296 153.66 52.3187 153.38 52.4885C153.1 52.6582 152.884 52.9043 152.731 53.2226C152.574 53.5408 152.515 53.9185 152.549 54.3513C152.523 54.7714 152.591 55.1406 152.748 55.4631C152.909 55.7814 153.134 56.0275 153.436 56.1972C153.728 56.3755 154.055 56.4561 154.403 56.4561C154.789 56.4561 155.112 56.367 155.375 56.1887C155.642 56.0105 155.85 55.7814 156.016 55.5013L156.851 55.9299C156.737 56.1972 156.559 56.4349 156.321 56.6513C156.083 56.8677 155.803 57.0374 155.477 57.169C155.15 57.2963 154.789 57.3599 154.395 57.3599L154.373 57.3472L154.378 57.343Z" fill="#0C2B2B"></path><path fill-rule="evenodd" clip-rule="evenodd" d="M67.8741 40.56V17.2336H72.4994V40.56H67.8741ZM57.1508 40.9291C55.3686 40.9291 53.8155 40.5345 52.5 39.7452C51.1845 38.9559 50.1704 37.8951 49.449 36.5584C48.7276 35.2217 48.3754 33.745 48.3754 32.1197C48.3754 30.4945 48.7488 28.9329 49.4999 27.6174C50.251 26.3019 51.2652 25.2665 52.5382 24.5069C53.8112 23.7431 55.2498 23.3697 56.8538 23.3697C58.1905 23.3697 59.3744 23.5819 60.3929 24.002C61.4198 24.4221 62.2854 25.0162 62.9941 25.7715C63.7027 26.5353 64.2417 27.4137 64.6151 28.4067C64.9843 29.3996 65.1667 30.4817 65.1667 31.6529C65.1667 31.9797 65.154 32.3064 65.1201 32.6247C65.0861 32.9429 65.031 33.2188 64.9503 33.4437H53.1747C53.2299 33.8723 53.336 34.2711 53.4972 34.6403C53.8028 35.3617 54.278 35.9218 54.9145 36.3207C55.5553 36.7239 56.3234 36.9191 57.223 36.9191C58.0462 36.9191 58.7464 36.7536 59.332 36.4268C59.9176 36.1001 60.3759 35.6418 60.7026 35.0732L64.3987 36.8299C64.0719 37.6532 63.5542 38.3703 62.8413 38.9899C62.1284 39.6094 61.2967 40.0847 60.3292 40.4199C59.3617 40.7594 58.3051 40.9291 57.1551 40.9291V40.9206L57.1508 40.9291ZM53.493 29.3742C53.4124 29.5906 53.3445 29.8155 53.2935 30.0531H60.2698C60.2443 29.79 60.1934 29.5354 60.1128 29.2978C59.8879 28.6104 59.4932 28.0672 58.9289 27.6641C58.3645 27.2609 57.6685 27.0657 56.8538 27.0657C56.0391 27.0657 55.3643 27.2652 54.7915 27.6513C54.2186 28.0375 53.7815 28.6188 53.4972 29.3742H53.493ZM75.8857 17.2336V40.56H80.5069V17.2336H75.8857ZM92.588 40.9291C91.1495 40.9291 89.7958 40.6703 88.5355 40.1441C87.2709 39.6179 86.1804 38.8795 85.268 37.912C84.3557 36.9445 83.6682 35.8073 83.2184 34.4918L87.1351 32.735C87.708 33.9868 88.5058 34.9756 89.5242 35.6885C90.5384 36.4098 91.6672 36.7663 92.902 36.7663C93.564 36.7663 94.1199 36.6645 94.5951 36.4608C95.0662 36.2571 95.4396 35.9685 95.7069 35.6163C95.97 35.2556 96.1101 34.8313 96.1101 34.3348C96.1101 33.8044 95.9488 33.3418 95.6221 32.9642C95.2953 32.5822 94.7776 32.2852 94.0817 32.0603L89.5794 30.5836C87.7462 29.9895 86.3713 29.1408 85.4547 28.0417C84.5297 26.9469 84.0671 25.623 84.0671 24.0783C84.0671 22.7247 84.4024 21.5323 85.0686 20.5054C85.7348 19.4784 86.6684 18.6722 87.8735 18.1036C89.0787 17.5307 90.4535 17.2379 92.0194 17.2379C93.3943 17.2379 94.6673 17.4755 95.8385 17.9465C97.0097 18.4176 98.0239 19.0838 98.8768 19.9495C99.7297 20.8151 100.375 21.8505 100.803 23.0599L96.9206 24.8167C96.492 23.7474 95.8427 22.9114 94.9813 22.3046C94.1156 21.6978 93.1269 21.4007 92.0194 21.4007C91.3786 21.4007 90.8227 21.5026 90.322 21.7063C89.834 21.9099 89.4521 22.2027 89.1847 22.5846C88.9174 22.9666 88.7816 23.4036 88.7816 23.8916C88.7816 24.4221 88.9598 24.8931 89.3078 25.2962C89.6558 25.6993 90.1777 26.0091 90.8821 26.234L95.2868 27.6513C97.137 28.2497 98.5161 29.0814 99.4327 30.1507C100.345 31.2201 100.799 32.5186 100.799 34.0675C100.799 35.4041 100.451 36.5881 99.751 37.6277C99.0508 38.6631 98.0875 39.4779 96.8696 40.0635C95.6433 40.6491 94.2217 40.9419 92.6007 40.9419L92.588 40.9291ZM105.03 47.2222C105.484 47.3028 105.968 47.3452 106.46 47.3452V47.3537C107.487 47.3537 108.42 47.1628 109.252 46.7809C110.084 46.399 110.826 45.8218 111.484 45.0368C112.138 44.2603 112.698 43.2927 113.148 42.1428L120.357 23.7431H115.392L111.416 34.5682L107.44 23.7431H102.475L109.104 40.5642L108.794 41.2771C108.548 41.8075 108.229 42.2828 107.839 42.7071C107.453 43.1315 106.804 43.3394 105.9 43.3394C105.573 43.3394 105.212 43.3055 104.822 43.2461C104.436 43.1867 104.092 43.1103 103.808 43.0296V46.8233C104.156 47.0058 104.563 47.1416 105.026 47.2264L105.03 47.2222ZM122.386 40.5642V23.7389H126.701V25.7842C127.092 25.0459 127.643 24.4857 128.348 24.0911C129.218 23.6073 130.24 23.3697 131.411 23.3697C132.684 23.3697 133.8 23.637 134.755 24.1717C135.71 24.7021 136.457 25.4532 136.987 26.4038C137.518 27.3585 137.789 28.4746 137.789 29.7476V40.5684H133.168V30.7363C133.168 30.0744 133.041 29.5185 132.782 29.039C132.523 28.5679 132.163 28.1945 131.704 27.9272C131.242 27.6598 130.703 27.524 130.083 27.524C129.464 27.524 128.954 27.6598 128.483 27.9272C128.012 28.1945 127.647 28.5679 127.389 29.039C127.13 29.51 127.002 30.0744 127.002 30.7363V40.5684H122.377L122.386 40.56V40.5642ZM144.558 39.7749C145.907 40.543 147.426 40.9334 149.107 40.9334V40.9249C150.38 40.9249 151.551 40.7085 152.62 40.2629C153.69 39.8216 154.602 39.2148 155.366 38.4297C156.121 37.6532 156.66 36.7663 156.966 35.7818L152.964 34.025C152.671 34.8695 152.196 35.5314 151.513 36.0279C150.83 36.5244 150.036 36.7705 149.111 36.7705C148.309 36.7705 147.592 36.5711 146.968 36.1849C146.34 35.7988 145.852 35.2514 145.491 34.5512C145.131 33.851 144.952 33.0533 144.952 32.1494C144.952 31.2456 145.131 30.4478 145.491 29.7476C145.848 29.0474 146.344 28.5 146.968 28.1139C147.596 27.7277 148.309 27.5283 149.111 27.5283C150.015 27.5283 150.813 27.7786 151.5 28.2709C152.187 28.7631 152.68 29.4294 152.964 30.2738L156.966 28.551C156.639 27.5028 156.096 26.5905 155.332 25.8224C154.568 25.0543 153.656 24.4475 152.586 24.0189C151.517 23.5903 150.358 23.3739 149.107 23.3739C147.418 23.3739 145.899 23.7474 144.545 24.5112C143.191 25.2665 142.122 26.3104 141.337 27.6386C140.552 28.9668 140.166 30.4563 140.166 32.124C140.166 33.7916 140.56 35.2896 141.35 36.6263C142.139 37.963 143.208 39.0153 144.558 39.7876V39.7749Z" fill="#0C2B2B"></path><path d="M13.8719 4.5118C13.8719 4.5118 13.8634 4.52029 13.8549 4.52029C13.804 4.55 13.7488 4.58394 13.6979 4.61789C13.9228 4.47786 14.1477 4.34631 14.3768 4.21052C14.2071 4.30812 14.0416 4.40572 13.8719 4.50756V4.5118ZM13.0274 5.04648C13.2481 4.89796 13.473 4.75793 13.6979 4.62213C13.6173 4.66881 13.5409 4.71973 13.4603 4.77066C13.3117 4.85977 13.1717 4.95312 13.0274 5.05072V5.04648ZM11.7204 5.95034C11.9326 5.79333 12.149 5.64057 12.3654 5.4878C12.2254 5.5854 12.0811 5.683 11.9411 5.78484C11.869 5.84001 11.7926 5.89517 11.7162 5.95034H11.7204ZM9.61568 7.65621C9.61568 7.65621 9.57749 7.6944 9.55628 7.71138C9.59871 7.67318 9.64114 7.63499 9.68358 7.5968C9.65812 7.61802 9.63266 7.63924 9.61568 7.65621ZM36.3834 31.1013L35.1571 28.9839L32.5686 24.4985C32.5007 24.3967 32.4328 24.2906 32.3649 24.1972C32.2418 24.0317 32.1145 23.8917 31.9618 23.7517L31.8939 23.7007C31.5968 23.4419 31.2531 23.2424 30.8797 23.1151L30.799 23.0854C30.4426 22.9709 30.0989 22.9115 29.7594 22.9369L29.5939 22.9496C29.2544 22.9836 28.9277 23.06 28.6137 23.1958C28.6052 23.1958 28.5924 23.2043 28.584 23.2043C28.5755 23.2127 28.5627 23.2127 28.5543 23.217C28.5076 23.2467 28.4524 23.2722 28.4057 23.2934L28.253 23.3825C28.253 23.3825 28.1978 23.4249 28.1639 23.4461C28.062 23.514 27.9602 23.5819 27.8668 23.6625L27.8583 23.671C27.7904 23.7304 27.7353 23.7814 27.6759 23.8493C27.5952 23.9214 27.5104 24.002 27.4467 24.0954C27.3788 24.176 27.3237 24.2524 27.2685 24.3415C27.2473 24.3755 27.226 24.4009 27.2006 24.4349C27.1794 24.4561 27.1666 24.4773 27.1497 24.5028L23.3221 31.1183L19.278 24.1124C18.476 22.7078 17.1903 21.6893 15.6456 21.2141C15.6075 21.2056 15.5693 21.1929 15.5353 21.1844C15.5014 21.1759 15.4674 21.1631 15.425 21.1547C13.8167 20.7261 12.1448 20.9382 10.6893 21.7445L20.6147 38.939C20.6147 38.939 20.6487 38.9814 20.6657 39.0027C20.6826 39.0196 20.6954 39.0409 20.7081 39.0621C20.7081 39.0706 20.7166 39.079 20.7251 39.0875L20.7336 39.096C20.7463 39.1172 20.7633 39.1385 20.776 39.1597C20.8227 39.2276 20.8651 39.2912 20.9203 39.3464C20.9712 39.4143 21.0306 39.4737 21.0815 39.5331L21.1112 39.5628C21.1112 39.5628 21.124 39.5755 21.1282 39.584L21.1367 39.5925C21.1621 39.6137 21.1834 39.6349 21.2046 39.6562C21.2513 39.6986 21.2937 39.7453 21.3404 39.7792C21.4337 39.8598 21.5271 39.9277 21.6332 39.9871C21.6629 40.0084 21.6926 40.0296 21.7223 40.055L21.8581 40.1229C21.926 40.1611 22.0108 40.1951 22.0872 40.2333L22.1169 40.2418L22.1466 40.2502C22.1466 40.2502 22.1551 40.2587 22.1594 40.2587C22.1636 40.2587 22.1678 40.2587 22.1678 40.2587H22.1763C22.2867 40.3097 22.3588 40.3309 22.4309 40.3648C22.4946 40.3818 22.5582 40.3945 22.6219 40.4072C22.6516 40.4157 22.6813 40.4157 22.711 40.4242C22.7195 40.4242 22.7322 40.4242 22.7407 40.4327C22.7492 40.4327 22.7577 40.4327 22.7704 40.4327L22.8086 40.4412L22.8383 40.4497C22.9104 40.4624 22.9656 40.4751 23.025 40.4794H23.6276C23.687 40.4794 23.7422 40.4667 23.8016 40.4539C23.827 40.4454 23.8525 40.4454 23.878 40.4412H23.8992C23.8992 40.4412 23.9246 40.4327 23.9331 40.4285H23.9543L24.0095 40.4157C24.0944 40.403 24.158 40.386 24.2217 40.3691C24.2938 40.3394 24.3702 40.3139 24.4381 40.2842C24.5866 40.2248 24.6969 40.1739 24.7988 40.1187L24.8837 40.0847L25.0195 39.9829C25.1213 39.9235 25.2274 39.8556 25.3123 39.775C25.3844 39.7198 25.4565 39.6519 25.5159 39.5883C25.6008 39.5076 25.6729 39.4313 25.7408 39.3506C25.796 39.2827 25.8427 39.2106 25.8936 39.1427L25.9233 39.0918C25.9445 39.0578 25.9657 39.0324 25.9912 38.9984C25.9912 38.9984 25.9912 38.9984 25.9912 38.9899L25.9997 38.9814V38.973C25.9997 38.973 26.0252 38.9475 26.0294 38.9305L28.6179 34.4452L29.857 32.3065L33.6761 38.9305C33.9562 39.4228 34.3508 39.8089 34.8388 40.089L35.0255 40.2036L35.1062 40.2418C35.4923 40.4497 35.9251 40.5643 36.3665 40.577C37.2364 40.6109 38.0808 40.2333 38.6325 39.5798C38.7343 39.4694 38.8065 39.3761 38.8616 39.2785C38.8913 39.2361 38.9125 39.2063 38.9253 39.1809C38.9338 39.1682 38.9422 39.1554 38.9507 39.1469L39.4557 38.2685L39.566 38.0733L39.6212 37.9715L49.831 20.2593L50.3699 19.3215C52.2794 16.0073 51.7957 11.8063 49.1308 9.06504C49.1138 9.05231 49.1011 9.03534 49.0799 9.01412C44.8704 4.71125 39.286 1.71961 33.0354 0.756341C33.0056 0.747854 32.9844 0.747854 32.9547 0.743611C32.925 0.743611 32.8953 0.735124 32.8656 0.73088C32.6365 0.701176 32.3988 0.662985 32.1654 0.637524C32.0084 0.616307 31.8429 0.599333 31.6817 0.582359C31.669 0.582359 31.652 0.582359 31.6392 0.582359C31.4992 0.561142 31.3677 0.548411 31.2276 0.539924C31.2149 0.539924 31.1979 0.539924 31.1894 0.539924C30.9476 0.518707 30.7057 0.501733 30.4638 0.484759H30.4129C30.3789 0.484759 30.345 0.476273 30.3068 0.476273C30.1328 0.467786 29.9461 0.459299 29.7636 0.450812H29.7339C29.6278 0.450812 29.526 0.442325 29.4242 0.442325C29.3393 0.442325 29.2544 0.442325 29.1653 0.442325C29.0974 0.442325 29.038 0.442325 28.9701 0.433838H28.6264C28.4524 0.433838 28.2784 0.433838 28.1002 0.442325C28.0068 0.442325 27.9135 0.442325 27.8159 0.450812C27.7395 0.450812 27.6631 0.450812 27.5867 0.459299C27.5146 0.459299 27.4382 0.459299 27.3661 0.467786C27.3024 0.467786 27.2388 0.476273 27.1794 0.476273C27.1157 0.476273 27.0521 0.484759 26.9884 0.484759C26.615 0.505977 26.2416 0.535681 25.8681 0.569629C25.8342 0.569629 25.8002 0.578116 25.7621 0.578116C25.7536 0.578116 25.7408 0.578116 25.7324 0.578116C25.6432 0.586603 25.5499 0.595089 25.465 0.60782C25.4565 0.60782 25.4565 0.60782 25.4523 0.60782C25.3292 0.62055 25.2104 0.633281 25.0873 0.650254C24.9982 0.658741 24.9134 0.671472 24.82 0.679959C24.6927 0.701176 24.5569 0.71815 24.4254 0.739367C24.3363 0.747854 24.2471 0.764828 24.158 0.781802C24.0816 0.790289 24.001 0.803019 23.9204 0.815749C23.861 0.824236 23.8016 0.836967 23.7379 0.845454C23.7082 0.845454 23.6785 0.853941 23.6488 0.858184C23.6064 0.866671 23.5639 0.875158 23.5215 0.883645C23.4324 0.900619 23.3475 0.913349 23.2584 0.934566C23.233 0.943053 23.2075 0.943053 23.1863 0.95154C23.1226 0.960027 23.059 0.972758 22.9996 0.985488C22.9444 0.993975 22.885 1.00671 22.8298 1.01944C22.8213 1.01944 22.8129 1.01944 22.8001 1.01944C22.7322 1.03217 22.6601 1.04914 22.5922 1.06611C22.5922 1.06611 22.5625 1.06611 22.554 1.0746H22.5455C22.4564 1.09582 22.3673 1.11279 22.2782 1.13401C22.257 1.1425 22.2357 1.1425 22.2145 1.15098C22.1848 1.15098 22.1594 1.15947 22.1297 1.16796C22.0745 1.18069 22.0151 1.19342 21.9599 1.21039C21.9302 1.21039 21.8963 1.21888 21.8666 1.23161C21.8581 1.23161 21.8453 1.2401 21.8326 1.2401C21.7817 1.25283 21.7308 1.26556 21.6798 1.27829C21.6798 1.27829 21.6798 1.27829 21.6714 1.27829H21.6629C21.6629 1.27829 21.6374 1.28677 21.6289 1.28677C21.4931 1.32072 21.3531 1.35467 21.2173 1.39286C21.1027 1.42256 20.9839 1.46076 20.8693 1.49046C20.8396 1.49895 20.8099 1.50743 20.7802 1.51592C20.759 1.52441 20.742 1.52865 20.7208 1.53289C20.7123 1.53289 20.7081 1.53289 20.6996 1.54138C20.6529 1.55411 20.6105 1.56684 20.5596 1.58382C20.4789 1.60503 20.3941 1.63049 20.3135 1.65596C20.1649 1.69839 20.0122 1.74507 19.8679 1.79599C19.6939 1.84691 19.5199 1.90632 19.3544 1.96573C19.1847 2.02089 19.0234 2.0803 18.8579 2.13971H18.8495C18.6797 2.20336 18.5142 2.26701 18.3445 2.32642C18.319 2.33491 18.2936 2.3434 18.2723 2.35613C18.1281 2.41129 17.9838 2.4707 17.8438 2.52586C17.657 2.60225 17.4746 2.67863 17.2921 2.75926C17.1563 2.81442 17.0205 2.87807 16.8847 2.93748C16.872 2.94597 16.855 2.95021 16.8423 2.9587C16.6938 3.02659 16.5453 3.09449 16.3967 3.16663C16.3882 3.16663 16.3755 3.17511 16.367 3.17936C16.2058 3.25574 16.0445 3.33212 15.8833 3.41275C15.7135 3.50186 15.5438 3.58673 15.3741 3.67584C15.3656 3.68433 15.3486 3.68857 15.3359 3.69706C15.1534 3.79466 14.9709 3.89226 14.7927 3.98986C14.5933 4.10019 14.3938 4.21476 14.1986 4.33358C14.2623 4.29539 14.3217 4.2572 14.3853 4.22325C14.292 4.27841 14.1986 4.33358 14.1095 4.38874C14.0416 4.42694 13.9737 4.46937 13.9101 4.50756C13.9016 4.51181 13.8931 4.51605 13.8846 4.52029C13.8846 4.52029 13.8761 4.52878 13.8676 4.52878C13.8167 4.55848 13.7615 4.59243 13.7106 4.62638C13.7191 4.62214 13.7276 4.61365 13.7361 4.6094C13.7149 4.62214 13.6937 4.63487 13.6724 4.6476C13.6852 4.63911 13.6979 4.63062 13.7106 4.62213C13.63 4.66881 13.5536 4.71973 13.473 4.77066C13.4603 4.77914 13.4475 4.78763 13.4348 4.79612C5.36374 9.85008 0 18.8208 0 29.039C0 29.1918 0 29.3445 0.00848692 29.4931C0.00848692 29.6204 0.00848692 29.7434 0.0169738 29.8707V29.9471C0.0169738 29.9895 0.0169738 30.0277 0.0169738 30.0659C0.0254608 30.1848 0.0254608 30.3036 0.0339477 30.4181C0.0424346 30.5539 0.0466781 30.6855 0.055165 30.8255C0.0636519 30.974 0.0721389 31.1183 0.0848692 31.2626C0.0933562 31.4111 0.106087 31.5511 0.118817 31.6997C0.127304 31.793 0.135791 31.8906 0.148521 31.9882C0.157008 32.0816 0.169738 32.1792 0.178225 32.2768C0.615302 36.1638 1.82893 39.8174 3.66211 43.0721L0.903857 54.3682C0.572867 55.7431 1.8841 56.9525 3.22927 56.5112L13.1887 53.1928C13.5239 53.3965 13.8761 53.6002 14.2495 53.8081L14.258 53.8166C17.8438 55.9001 21.9217 57.2283 26.2713 57.5805C26.3604 57.589 26.458 57.5933 26.5471 57.6018C26.5683 57.6018 26.5938 57.6018 26.615 57.6102C26.6405 57.6102 26.6659 57.6102 26.6871 57.6187C26.7593 57.6187 26.8357 57.6272 26.912 57.6272H26.946C27.0054 57.6357 27.069 57.6357 27.1327 57.6357C27.26 57.6442 27.3831 57.6484 27.5146 57.6569C27.608 57.6569 27.7013 57.6569 27.8032 57.6654C27.8838 57.6654 27.9687 57.6654 28.0493 57.6739C28.236 57.6739 28.4312 57.6824 28.6221 57.6824H28.7537C28.8937 57.6824 29.0338 57.6824 29.1696 57.6739C29.2672 57.6739 29.3605 57.6739 29.4581 57.6654C29.5472 57.6654 29.6406 57.6569 29.7297 57.6569C29.8612 57.6484 29.9928 57.6442 30.1243 57.6357C30.1922 57.6357 30.2516 57.6357 30.3153 57.6272C30.3917 57.6272 30.4681 57.6272 30.5444 57.6187C30.5699 57.6187 30.5954 57.6187 30.6166 57.6102C30.6166 57.6102 30.6251 57.6102 30.6293 57.6102C30.6463 57.6102 30.6675 57.6102 30.6845 57.6102C30.7651 57.6102 30.8457 57.6018 30.9263 57.5933C34.1005 57.3429 37.126 56.5706 39.9182 55.3697C40.0795 55.3103 40.2068 55.2594 40.2789 55.2297C40.6269 55.0684 40.9749 54.9029 41.3186 54.7247C41.3271 54.7247 41.3313 54.7162 41.344 54.712C41.6793 54.5422 42.0103 54.364 42.3413 54.173C42.5746 54.0457 42.808 53.9099 43.0329 53.7742C43.2366 53.6596 43.4361 53.5408 43.6313 53.4177L43.6228 53.4007C44.8237 52.6327 45.9822 51.7628 47.0727 50.7952C47.3188 50.5831 47.5522 50.3667 47.7899 50.1502C48.2142 49.7514 48.6301 49.3312 49.029 48.9069C49.2326 48.6862 49.4406 48.4613 49.6358 48.2407C50.7518 46.9719 50.5566 44.9902 49.135 43.9845C48.2991 43.3946 47.2425 43.3437 46.3386 43.7341C46.3131 43.7426 46.2877 43.7553 46.2665 43.7681C42.0442 48.8517 35.6748 52.0853 28.5543 52.0853C15.8408 52.0853 5.53347 41.7779 5.53347 29.0687C5.53347 16.3595 15.8451 6.02248 28.5585 6.02248C34.2957 6.02248 39.5448 8.11875 43.5719 11.5984C43.6313 11.6493 43.6949 11.7002 43.7543 11.7554C43.8053 11.7978 43.8519 11.8403 43.9029 11.8827C43.9495 11.9209 43.992 11.9633 44.0344 12.0058C44.0471 12.0142 44.0641 12.027 44.0726 12.044C45.3074 13.2661 45.5663 15.1799 44.6879 16.7033L36.3919 31.1098L36.3834 31.1013Z" fill="#0C2B2B"></path></svg> 